<?xml version="1.0" standalone="no"?><!DOCTYPE svg PUBLIC "-//W3C//DTD SVG 1.1//EN" "http://www.w3.org/Graphics/SVG/1.1/DTD/svg11.dtd"><svg t="1645116754700" class="icon" viewBox="0 0 1024 1024" version="1.1" xmlns="http://www.w3.org/2000/svg" p-id="3427" xmlns:xlink="http://www.w3.org/1999/xlink" width="200" height="200"><defs><style type="text/css"></style></defs><path d="M736 10.022v187.98a10 10 0 0 0 10 10h187.98c8.907 0 13.37-10.773 7.071-17.073L753.071 2.95C746.772-3.347 736 1.113 736 10.023z" p-id="3428" fill="#fff"></path><path d="M688 304.001c-26.51 0-48-21.49-48-48v-256H188c-59.55 0-108 48.448-108 108v808C80 975.551 128.45 1024 188 1024h648c59.55 0 108-48.448 108-108V304.001z m-48 256h-80v80c0 26.51-21.49 48-48 48s-48-21.49-48-48v-80h-80c-26.51 0-48-21.49-48-48s21.49-48 48-48h80v-80c0-26.51 21.49-48 48-48s48 21.49 48 48v80h80c26.51 0 48 21.49 48 48s-21.49 48-48 48z" p-id="3429" fill="#fff"></path></svg>